<svg id="logo" xmlns="http://www.w3.org/2000/svg" width="501.566" height="372.474" viewBox="0 0 501.566 372.474">
  <g id="Layer_1">
    <path id="Path_1" d="M1436.014,1156.024l-59.051,23.71L1303.91,997.806l49.887-20.025a9.836,9.836,0,0,1,12.816,5.479Z" transform="translate(-1195.612 -873.937)" fill="#f4a640"/>
    <rect id="Rectangle_1" width="114.77" height="161.357" transform="matrix(0.985, -0.175, 0.175, 0.985, 106.042, 136.682)" fill="#adcfd8"/>
    <rect id="Rectangle_2" width="51.265" height="1.153" transform="matrix(0.985, -0.175, 0.175, 0.985, 140.032, 146.94)" fill="#55769f"/>
    <rect id="Rectangle_3" width="72.797" height="1.153" transform="matrix(0.985, -0.175, 0.175, 0.985, 128.936, 145.909)" fill="#55769f"/>
    <rect id="Rectangle_4" width="88.304" height="1.153" transform="matrix(0.985, -0.175, 0.175, 0.985, 123.935, 162.052)" fill="#55769f"/>
    <rect id="Rectangle_5" width="88.304" height="1.153" transform="matrix(0.985, -0.175, 0.175, 0.985, 124.871, 167.504)" fill="#55769f"/>
    <rect id="Rectangle_6" width="88.304" height="1.153" transform="matrix(0.985, -0.175, 0.175, 0.985, 126.806, 178.408)" fill="#55769f"/>
    <rect id="Rectangle_7" width="88.304" height="1.153" transform="matrix(0.985, -0.175, 0.175, 0.985, 127.774, 183.828)" fill="#55769f"/>
    <rect id="Rectangle_8" width="88.304" height="1.153" transform="matrix(0.985, -0.175, 0.175, 0.985, 128.748, 189.312)" fill="#55769f"/>
    <rect id="Rectangle_9" width="88.304" height="1.153" transform="matrix(0.985, -0.175, 0.175, 0.985, 132.993, 213.288)" fill="#55769f"/>
    <rect id="Rectangle_10" width="88.304" height="1.153" transform="matrix(0.985, -0.175, 0.175, 0.985, 133.994, 218.924)" fill="#55769f"/>
    <rect id="Rectangle_11" width="88.304" height="1.153" transform="matrix(0.985, -0.175, 0.175, 0.985, 135.026, 224.554)" fill="#55769f"/>
    <rect id="Rectangle_12" width="88.304" height="1.153" transform="matrix(0.985, -0.175, 0.175, 0.985, 136.001, 230.253)" fill="#55769f"/>
    <rect id="Rectangle_13" width="88.304" height="1.153" transform="matrix(0.985, -0.175, 0.175, 0.985, 137.002, 235.889)" fill="#55769f"/>
    <rect id="Rectangle_14" width="88.304" height="1.153" transform="matrix(0.985, -0.175, 0.175, 0.985, 137.971, 241.525)" fill="#55769f"/>
    <rect id="Rectangle_15" width="88.304" height="1.153" transform="matrix(0.985, -0.175, 0.175, 0.985, 139.008, 247.186)" fill="#55769f"/>
    <rect id="Rectangle_16" width="114.77" height="161.357" transform="matrix(0.967, -0.254, 0.254, 0.967, 91.735, 142.05)" fill="#daeef7"/>
    <rect id="Rectangle_17" width="51.265" height="1.153" transform="matrix(0.967, -0.254, 0.254, 0.967, 126.442, 149.459)" fill="#55769f"/>
    <rect id="Rectangle_18" width="72.92" height="1.155" transform="translate(113.417 177.122) rotate(-14.452)" fill="#55769f"/>
    <rect id="Rectangle_19" width="88.304" height="1.153" transform="matrix(0.967, -0.254, 0.254, 0.967, 111.567, 165.893)" fill="#55769f"/>
    <rect id="Rectangle_20" width="88.454" height="1.155" transform="translate(111.027 199.019) rotate(-14.452)" fill="#55769f"/>
    <rect id="Rectangle_21" width="88.304" height="1.153" transform="matrix(0.967, -0.254, 0.254, 0.967, 115.801, 181.911)" fill="#55769f"/>
    <rect id="Rectangle_22" width="88.304" height="1.153" transform="matrix(0.967, -0.254, 0.254, 0.967, 117.212, 187.271)" fill="#55769f"/>
    <rect id="Rectangle_23" width="88.454" height="1.155" transform="translate(116.593 220.517) rotate(-14.452)" fill="#55769f"/>
    <rect id="Rectangle_24" width="88.304" height="1.153" transform="matrix(0.967, -0.254, 0.254, 0.967, 124.827, 216.196)" fill="#55769f"/>
    <rect id="Rectangle_25" width="88.304" height="1.153" transform="matrix(0.967, -0.254, 0.254, 0.967, 126.286, 221.735)" fill="#55769f"/>
    <rect id="Rectangle_26" width="88.304" height="1.153" transform="matrix(0.967, -0.254, 0.254, 0.967, 127.744, 227.265)" fill="#55769f"/>
    <rect id="Rectangle_27" width="88.304" height="1.153" transform="matrix(0.967, -0.254, 0.254, 0.967, 129.17, 232.804)" fill="#55769f"/>
    <rect id="Rectangle_28" width="88.304" height="1.153" transform="matrix(0.967, -0.254, 0.254, 0.967, 130.669, 238.397)" fill="#55769f"/>
    <rect id="Rectangle_29" width="88.304" height="1.153" transform="matrix(0.967, -0.254, 0.254, 0.967, 132.127, 243.927)" fill="#55769f"/>
    <rect id="Rectangle_30" width="88.304" height="1.153" transform="matrix(0.967, -0.254, 0.254, 0.967, 133.585, 249.466)" fill="#55769f"/>
    <path id="Path_2" d="M1467.573,1165.08l-118.839,47.709-69.3-172.54,99.839-61.614a10.605,10.605,0,0,1,15.443,5.094Z" transform="translate(-1249.568 -873.99)" fill="#feb546"/>
    <path id="Path_3" d="M1307.759,1057.592l-16.95-.321c-5.863-10.669-10.189-19.929-10.189-19.929a81.957,81.957,0,0,1,48.766,2.563l7.4,18.04,1.6-13.874c33.354,17.975,47.1,56.1,47.1,56.1s-58.955-6.408-71.451-12.111c-4.838-2.243-10.926-10.317-16.565-19.385C1301.992,1064.289,1307.759,1057.592,1307.759,1057.592Z" transform="translate(-1246.945 -746.7)" fill="#ff5b7e"/>
    <path id="Path_4" d="M1280.62,1035.59s75.68,31.848,104.87,62.832c0,0-58.955-6.408-71.451-12.112-4.838-2.243-10.926-10.317-16.565-19.385,4.518-4.293,10.285-11.086,10.285-11.086l-16.95-.32C1285.042,1044.85,1280.62,1035.59,1280.62,1035.59Z" transform="translate(-1246.945 -744.948)" fill="#e03268"/>
    <path id="Path_5" d="M1281.37,1059.429a77.886,77.886,0,0,1,30.438-10.862c2.916,3.621,6.408,7.882,6.408,7.882l.353-8.491c38.193-1.73,69.817,23.838,69.817,23.838-22.108,13.938-40.948,17.783-56.424,16.533-.9-2.948-2.21-7.4-2.21-7.4l-2.724,6.825a66.585,66.585,0,0,1-19.577-6.408c1.442-3.556,2.948-7.594,2.948-7.594l-8.2,4.678A72.028,72.028,0,0,1,1281.37,1059.429Z" transform="translate(-1245.292 -717.874)" fill="#ff5b7e"/>
    <path id="Path_6" d="M1332.058,1081.188c-.9-2.948-2.21-7.4-2.21-7.4l-2.723,6.825a66.578,66.578,0,0,1-19.578-6.408c1.442-3.557,2.948-7.594,2.948-7.594l-8.2,4.678a72.032,72.032,0,0,1-20.922-19.224c44.5-5.158,107.112,12.368,107.112,12.368C1366.374,1078.593,1347.47,1082.438,1332.058,1081.188Z" transform="translate(-1245.292 -710.733)" fill="#e03268"/>
    <path id="Path_7" d="M1380.067,1002.051l13.682-10.029c-1.346-12.111-3.2-22.172-3.2-22.172A81.643,81.643,0,0,0,1352.1,1000.1l4.357,19-9.324-10.413c-16.854,33.931-6.056,72.989-6.056,72.989s44.5-39.154,51.265-51.265c2.659-4.614,2.948-14.739,2.339-25.408A147.684,147.684,0,0,1,1380.067,1002.051Z" transform="translate(-1121.209 -889.844)" fill="#02ccc0"/>
    <path id="Path_8" d="M1388.145,969.85s-43.448,69.689-49.375,111.823c0,0,44.5-39.154,51.265-51.265,2.659-4.614,2.948-14.739,2.339-25.408-6.184-.9-14.835-3.2-14.835-3.2l13.682-10.029C1389.971,979.943,1388.145,969.85,1388.145,969.85Z" transform="translate(-1118.778 -889.844)" fill="#06bfad"/>
    <path id="Path_9" d="M1418.03,983.26a77.926,77.926,0,0,0-31.176,8.779c-.288,4.646-.737,10.189-.737,10.189l-5.223-6.7c-32.041,20.6-43.255,59.756-43.255,59.756,26.113-1.378,43.736-9.131,55.623-19.224-.961-2.948-2.467-7.337-2.467-7.337l6.184,4a67.035,67.035,0,0,0,12.368-16.437c-3.2-2.082-6.825-4.485-6.825-4.485l9.42-.929a71.831,71.831,0,0,0,6.087-27.619Z" transform="translate(-1121.268 -860.287)" fill="#02ccc0"/>
    <path id="Path_10" d="M1393.262,1036.127c-.961-2.948-2.467-7.337-2.467-7.337l6.184,4.005a67.017,67.017,0,0,0,12.368-16.437c-3.2-2.083-6.825-4.486-6.825-4.486l9.42-.929a71.839,71.839,0,0,0,6.024-27.683c-39.282,21.468-80.326,71.932-80.326,71.932C1363.817,1053.814,1381.44,1046.06,1393.262,1036.127Z" transform="translate(-1121.268 -860.288)" fill="#06bfad"/>
    <path id="Path_11" d="M1547.777,999.742h8.138a8.588,8.588,0,0,0-4.806-1.442H1347.554c-10.637,0-19.224,7.658-19.224,17.11v10.766c0,9.612,8.651,17.11,19.224,17.11h201.28Z" transform="translate(-1141.789 -827.138)" fill="#e03268"/>
    <path id="Path_12" d="M1336.659,1026.219v-10.83c0-9.452,8.619-17.11,19.225-17.11h-4.39c-10.637,0-19.225,7.658-19.225,17.11v10.83c0,9.612,8.619,17.11,19.225,17.11h4.325C1345.278,1043.361,1336.659,1035.832,1336.659,1026.219Z" transform="translate(-1133.104 -827.182)" fill="#feb546"/>
    <path id="Path_13" d="M1351.54,1026.219v-10.83c0-9.452,8.619-17.11,19.225-17.11h-4.39c-10.638,0-19.225,7.658-19.225,17.11v10.83c0,9.612,8.619,17.11,19.225,17.11h4.325C1360.126,1043.361,1351.54,1035.832,1351.54,1026.219Z" transform="translate(-1100.308 -827.182)" fill="#feb546"/>
    <path id="Path_14" d="M1373.455,998.31c-10.189,0-18.456,7.337-18.456,16.373v12.272c0,9,8.267,16.341,18.456,16.341h126.722v-2.755h-.545l-32.2-2.692-6.408-22.653s12.56-12.528,13.361-12.816,25.344-1.282,25.344-1.282h.545v-2.755Z" transform="translate(-1083.006 -827.116)" fill="#ff5b7e"/>
    <path id="Path_15" d="M1489.121,1018.843a26.147,26.147,0,0,1,7.722-19.673H1373.23c-9.356,0-16.95,6.729-16.95,15.027v9.42c0,8.3,7.593,15.027,16.95,15.027h123.613S1489.121,1035.5,1489.121,1018.843Z" transform="translate(-1080.185 -825.221)" fill="#daeef7"/>
    <path id="Path_16" d="M1356.28,1014.2v9.42a13.517,13.517,0,0,0,.48,3.621,35.5,35.5,0,0,1,27.4-20.57c35.5-6.408,112.688-7.5,112.688-7.5H1373.23C1363.873,999.17,1356.28,1005.9,1356.28,1014.2Z" transform="translate(-1080.184 -825.221)" fill="#daeef7"/>
    <path id="Path_17" d="M1566.706,1028.085h9.2a9.093,9.093,0,0,0-5.447-1.794H1340.082a21.627,21.627,0,0,0-21.852,21.372v13.617a21.628,21.628,0,0,0,21.852,21.372h227.81Z" transform="translate(-1164.049 -765.447)" fill="#284c7a"/>
    <path id="Path_18" d="M1369.37,1026.3a20.7,20.7,0,0,0-20.89,20.474v15.348a20.7,20.7,0,0,0,20.891,20.474h143.415v-3.428h-.608l-36.462-3.4-7.37-28.356s14.226-15.636,15.155-16.02,28.836-1.634,28.836-1.634h.609v-3.428Z" transform="translate(-1097.376 -765.424)" fill="#55769f"/>
    <path id="Path_19" d="M1500.27,1051.957c0-16.565,8.747-24.575,8.747-24.575H1369.094a18.968,18.968,0,0,0-19.224,18.776v11.823a19,19,0,0,0,19.225,18.808h139.922S1500.27,1072.847,1500.27,1051.957Z" transform="translate(-1094.312 -763.045)" fill="#daeef7"/>
    <path id="Path_20" d="M1349.89,1046.091v11.823a18.954,18.954,0,0,0,.545,4.518,40.978,40.978,0,0,1,30.983-25.633c40.212-8.2,127.555-9.388,127.555-9.388H1369.051A18.969,18.969,0,0,0,1349.89,1046.091Z" transform="translate(-1094.268 -762.979)" fill="#daeef7"/>
    <path id="Path_21" d="M1322.163,1013.762H1313a10.67,10.67,0,0,1,5.447-1.442h230.47c12.079,0,21.852,7.626,21.852,16.981v10.83c0,9.356-9.612,16.982-21.852,16.982H1321.01Z" transform="translate(-1175.577 -796.237)" fill="#02ccc0"/>
    <path id="Path_22" d="M1455.508,1012.34c11.535,0,20.891,7.273,20.891,16.213v12.208c0,8.971-9.356,16.213-20.891,16.213H1312.03v-2.723h.608l36.462-2.659,7.37-22.428s-14.226-12.432-15.155-12.816-28.836-1.313-28.836-1.313h-.609v-2.692Z" transform="translate(-1178.067 -796.193)" fill="#06bfad"/>
    <path id="Path_23" d="M1320.847,1032.7a24.766,24.766,0,0,0-8.747-19.513h139.986c10.573,0,19.224,6.665,19.224,14.9v9.388c0,8.235-8.587,14.9-19.224,14.9H1312.1S1320.847,1049.268,1320.847,1032.7Z" transform="translate(-1177.56 -794.32)" fill="#daeef7"/>
    <path id="Path_24" d="M1471.247,1028.089v9.388a12.334,12.334,0,0,1-.545,3.589c-4.742-9-13.777-17.655-31.015-20.442-40.211-6.408-127.586-7.433-127.586-7.433h139.986C1462.659,1013.19,1471.247,1019.854,1471.247,1028.089Z" transform="translate(-1177.56 -794.319)" fill="#daeef7"/>
    <path id="Path_25" d="M1395.27,1040.109v-10.8c0-9.356-9.612-16.982-21.82-16.982h21.884c12.047,0,21.82,7.626,21.82,16.982v10.8c0,9.356-9.612,16.982-21.82,16.982h-21.6C1385.657,1056.931,1395.27,1049.369,1395.27,1040.109Z" transform="translate(-1042.341 -796.215)" fill="#55769f" opacity="0.5"/>
    <path id="Path_26" d="M1317.24,1045.522h-9.9a11.212,11.212,0,0,1,5.864-1.6h248.444c13.009,0,23.55,8.491,23.55,18.968v12.047c0,10.477-10.542,18.968-23.55,18.968H1315.958Z" transform="translate(-1188.052 -726.588)" fill="#feb546"/>
    <path id="Path_27" d="M1460.873,1044.15c12.432,0,22.429,8.138,22.429,18.167v13.617c0,10-10.061,18.135-22.429,18.135H1306.18v-3.2h.641l39.346-3.012,7.946-25.12s-15.348-13.906-16.341-14.258-30.952-1.442-30.952-1.442h-.641v-3.2Z" transform="translate(-1190.609 -726.786)" fill="#f4a640"/>
    <path id="Path_28" d="M1315.932,1066.7a28.033,28.033,0,0,0-9.612-21.82h150.912c11.407,0,20.666,7.465,20.666,16.693v10.477c0,9.2-9.26,16.661-20.666,16.661H1306.32S1315.932,1085.22,1315.932,1066.7Z" transform="translate(-1190.3 -724.473)" fill="#daeef7"/>
    <path id="Path_29" d="M1477.948,1061.573v10.478a12.827,12.827,0,0,1-.608,3.973c-5.062-10.029-14.835-19.673-33.387-22.781-43.351-7.273-137.583-8.363-137.583-8.363h150.912C1468.592,1044.88,1477.948,1052.345,1477.948,1061.573Z" transform="translate(-1190.19 -724.472)" fill="#daeef7"/>
    <rect id="Rectangle_31" width="423.515" height="5.511" rx="0.86" transform="translate(53.476 366.963)" fill="#c4dfe8"/>
    <path id="Path_30" d="M15.89,89.657l80.9-46.267,10.926,21.66-82.793,43.8Z" transform="translate(35.023 95.635)" fill="#f4a640"/>
    <path id="Path_31" d="M1337.437,961.58s-.641,6.408-5.607,6.729c4.967.417,5.607,6.729,5.607,6.729s.641-6.408,5.607-6.729C1338.078,967.86,1337.437,961.58,1337.437,961.58Z" transform="translate(-1134.074 -908.072)" fill="#02ccc0"/>
    <path id="Path_32" d="M1311.945,946.49s-.865,8.395-7.465,8.971c6.6.577,7.465,8.939,7.465,8.939s.833-8.363,7.465-8.939C1312.778,954.885,1311.945,946.49,1311.945,946.49Z" transform="translate(-1194.355 -941.331)" fill="#feb546"/>
    <path id="Path_33" d="M1299.438,969.89s-.545,5.607-5,5.992c4.454.417,5,6.024,5,6.024s.577-5.607,5.03-6.024C1299.983,975.5,1299.438,969.89,1299.438,969.89Z" transform="translate(-1216.485 -889.756)" fill="#ff5b7e"/>
    <path id="Path_34" d="M1423.935,1011.79s-.833,8.395-7.465,8.971c6.632.577,7.465,8.939,7.465,8.939s.865-8.363,7.465-8.939C1424.8,1020.184,1423.935,1011.79,1423.935,1011.79Z" transform="translate(-947.521 -797.405)" fill="#ff5b7e"/>
    <path id="Path_35" d="M1277.575,988.76s-.833,8.395-7.465,8.971c6.632.577,7.465,8.939,7.465,8.939s.865-8.363,7.465-8.939C1278.44,997.155,1277.575,988.76,1277.575,988.76Z" transform="translate(-1270.11 -848.165)" fill="#02ccc0"/>
    <path id="Path_36" d="M1429.455,986s-.865,8.395-7.465,8.971c6.6.577,7.465,8.971,7.465,8.971s.833-8.395,7.465-8.971C1430.288,994.267,1429.455,986,1429.455,986Z" transform="translate(-935.354 -854.248)" fill="#02ccc0"/>
    <path id="Path_37" d="M1365.055,944.88s-.833,8.395-7.465,8.971c6.632.577,7.465,8.971,7.465,8.971s.865-8.395,7.465-8.971C1365.92,953.275,1365.055,944.88,1365.055,944.88Z" transform="translate(-1077.297 -944.88)" fill="#ff5b7e"/>
    <path id="Path_38" d="M1406.917,966.73s-.449,5.287-4.038,5.639c3.589.385,4.038,5.671,4.038,5.671s.48-5.287,4.069-5.671C1407.4,972.017,1406.917,966.73,1406.917,966.73Z" transform="translate(-977.474 -896.721)" fill="#feb546"/>
    <path id="Path_39" d="M1326.155,1047.22l-11.182.545-1.41,33.13-5.7,2.755.288,1.218,2.115.513h7.081a12.453,12.453,0,0,0,1.6-1.57l-.193-.256,1.121-.8Z" transform="translate(-1186.906 -719.315)" fill="#ffc0bb"/>
    <path id="Path_40" d="M1335.585,1083.694s-5.575-2.787-5.7-2.755l1.25-33.739H1317.29l6.408,35.245.673.481a3.929,3.929,0,0,1-.32,1.25,19.384,19.384,0,0,0,3.2.641,42.571,42.571,0,0,1,4.935.833,5.417,5.417,0,0,0,3.588-.833Z" transform="translate(-1166.121 -719.359)" fill="#ffc0bb"/>
    <path id="Path_41" d="M1342.594,1033.684c-1.634-4.2-3.2-2.531-6.088-7.594a10.193,10.193,0,0,1-1.025-2.82,14.388,14.388,0,0,0-4.454-7.434,15.7,15.7,0,0,0-14.547-3.2s1.987,11.406,2.372,13.714l-3.428,4.678s-3.589,18.712,2.05,20.282,6.665-.929,9.42-2.243,5.447,2.275,9.612-.224c3.2-1.922,1.538-6.7,3.2-7.594a5.511,5.511,0,0,0,2.884-7.562Z" transform="translate(-1172.714 -796.871)" fill="#f50"/>
    <path id="Path_42" d="M1330.086,1029.256l-5.126-2.884,15.027-16.725-4.806-.9c-.288,0-6.825,1.986-6.825,1.986l-6.728,1.826c-5.126,18.744-11.535,22.14-11.535,22.14a7.134,7.134,0,0,0-2.243,2.4,5.511,5.511,0,0,0,1.506,7.882c1.474,1.186-.994,5.575,1.73,8.043,3.589,3.2,6.889.192,9.356,1.987s2.98,4.486,8.812,4,5.8-19.577,5.8-19.577S1330.279,1029.32,1330.086,1029.256Z" transform="translate(-1189.235 -804.106)" fill="#f50"/>
    <path id="Path_43" d="M1334.1,1033.943s4.934,23.678,3.492,26.241-20.282,3.2-20.282,3.2l-.8-30.407,7.177-10.862Z" transform="translate(-1167.841 -774.637)" fill="#ff5b7e"/>
    <path id="Path_44" d="M1344.78,1043.926l-3.524-9.612s-11.6-4.229-12.335-4.293-10.574,4.293-10.574,4.293-3.012,6.088-3.588,7.177a27.646,27.646,0,0,0,1.153,7.53l-4.166.192-2.755,61.07a15.443,15.443,0,0,0,12.431.481l5.319-53.38,4.614-.673,6.889,52.9a13.747,13.747,0,0,0,13.394.673l-5.191-58.859A29.66,29.66,0,0,0,1344.78,1043.926Z" transform="translate(-1184.415 -757.225)" fill="#07085b"/>
    <path id="Path_45" d="M1313.11,1020.407a58.966,58.966,0,0,1,14.739-.416c9.612.673-4.422,6.087-4.422,6.087l-5.126-.192C1318.076,1025.822,1313.11,1020.407,1313.11,1020.407Z" transform="translate(-1175.334 -779.941)" fill="#ffc0bb"/>
    <rect id="Rectangle_32" width="8.491" height="14.931" transform="translate(141.46 235.051)" fill="#ffc0bb"/>
    <path id="Path_46" d="M1322.751,1022.482v-5.062h-8.491v4.325a12.494,12.494,0,0,0,8.491.738Z" transform="translate(-1172.8 -784.996)" fill="#f99893"/>
    <path id="Path_47" d="M1344.354,1022.594a3.2,3.2,0,0,0-2.627,0,13.874,13.874,0,0,0-27.748,0,2.949,2.949,0,0,0-2.595,0,4.037,4.037,0,0,0,3.459,7.081l.609-.417a12.5,12.5,0,0,0,24.832,0,3.778,3.778,0,0,0,.577.416,4.037,4.037,0,0,0,3.493-7.081Z" transform="translate(-1182.484 -804.172)" fill="#ffc0bb"/>
    <path id="Path_48" d="M1316.01,1014.889a1.185,1.185,0,1,1-.521-1.187A1.185,1.185,0,0,1,1316.01,1014.889Z" transform="translate(-1174.133 -793.615)" fill="#333"/>
    <path id="Path_49" d="M1319.14,1014.751a1.184,1.184,0,0,1-1.121,1.218,1.121,1.121,0,0,1-1.218-1.09,1.153,1.153,0,0,1,1.089-1.218A1.185,1.185,0,0,1,1319.14,1014.751Z" transform="translate(-1167.203 -793.285)" fill="#333"/>
    <path id="Path_50" d="M1319.242,1014.218a12.094,12.094,0,0,0-1.7-.449,5.611,5.611,0,0,0-1.634,0,5.345,5.345,0,0,0-1.57.384h-.385l-.384.192c-.289,0-.513.32-.8.449a3.221,3.221,0,0,1,.545-.769,4.386,4.386,0,0,1,.705-.609,3.618,3.618,0,0,1,1.794-.673,3.909,3.909,0,0,1,1.922.288,3.646,3.646,0,0,1,1.506,1.186Z" transform="translate(-1176.084 -795.347)" fill="#f50"/>
    <path id="Path_51" d="M1316.26,1014.171a3.526,3.526,0,0,1,1.506-1.121,3.973,3.973,0,0,1,3.716.352,6.338,6.338,0,0,1,.705.609,3.221,3.221,0,0,1,.545.769c-.289,0-.513-.32-.8-.448h-.77a5.617,5.617,0,0,0-1.57-.385,7.01,7.01,0,0,0-1.634,0A8.455,8.455,0,0,0,1316.26,1014.171Z" transform="translate(-1168.391 -795.3)" fill="#f50"/>
    <path id="Path_52" d="M1315.7,1013.44a7.056,7.056,0,0,0,0,1.826,2.889,2.889,0,0,0,.256.9,1.792,1.792,0,0,0,.545.865c.288.257.449.321.513.545a.77.77,0,0,1,0,.641,2.559,2.559,0,0,1-1.282,1.09,2.017,2.017,0,0,0,1.666-.865,1.347,1.347,0,0,0,.192-1.057,1.574,1.574,0,0,0-.608-.737,2.208,2.208,0,0,1-.513-.673,6.431,6.431,0,0,1-.321-.833A12.2,12.2,0,0,0,1315.7,1013.44Z" transform="translate(-1169.755 -793.768)" fill="#f99893"/>
    <path id="Path_53" d="M1314.47,1015.83a6.4,6.4,0,0,0,.994.608,7.45,7.45,0,0,0,1.057.449,6.958,6.958,0,0,0,2.275.417,5.793,5.793,0,0,0,2.211-.448,7.777,7.777,0,0,0,1.986-1.185,4.948,4.948,0,0,1-.865.769,4.8,4.8,0,0,1-1.025.609,4.741,4.741,0,0,1-1.122.417,7.5,7.5,0,0,1-1.185,0,6.4,6.4,0,0,1-2.339-.512,6.124,6.124,0,0,1-1.986-1.122Z" transform="translate(-1172.337 -788.853)" fill="#f99893"/>
    <path id="Path_54" d="M1350.2,1023.346a14.032,14.032,0,0,0-10.99-3.524,9.43,9.43,0,0,1-2.115,1.634,8.683,8.683,0,0,1-3.685.993h0a8.549,8.549,0,0,1-3.685-.993,10.3,10.3,0,0,1-2.147-1.634,13.97,13.97,0,0,0-10.958,3.524,61.315,61.315,0,0,0-9.228,14.322,25.634,25.634,0,0,0,11.375,5.992s2.724,12.5,3.2,13.3a28.6,28.6,0,0,0,6.857,1.987,22.673,22.673,0,0,0,4.325.416h.513a23.1,23.1,0,0,0,4.354-.417,28.61,28.61,0,0,0,6.86-1.987c.544-.8,3.2-13.3,3.2-13.3a25.63,25.63,0,0,0,11.407-5.992A61.311,61.311,0,0,0,1350.2,1023.346Z" transform="translate(-1187.942 -779.901)" fill="#02ccc0"/>
    <path id="Path_55" d="M1316.9,1030.324a2.948,2.948,0,0,1,2.659.961v3.2l-2.115.993a20.094,20.094,0,0,1-2.371-2.275,31.9,31.9,0,0,0,1.827-2.884Z" transform="translate(-1171.015 -756.631)" fill="#e03268"/>
    <path id="Path_56" d="M68,105.906l-27.555,7.978L37.75,93.7,65.305,85.72Z" transform="translate(83.204 188.934)" fill="#e03268"/>
    <path id="Path_57" d="M37.88,110.9l2.4,2.051,26.37-7.562-2.371-19-1.858-.8Z" transform="translate(83.49 188.647)" fill="#daeef7"/>
    <path id="Path_58" d="M50.519,105.391l-1.858-1.634L45.2,99.976l.224-10.413.865-3.973,1.89.769Z" transform="translate(99.624 188.647)" fill="#daeef7"/>
    <path id="Path_59" d="M66.91,104.132,39.323,112.11,36.92,93.4,64.475,85.42Z" transform="translate(81.375 188.272)" fill="#ff5b7e"/>
    <path id="Path_60" d="M1315.149,1023.83a25.624,25.624,0,0,0-1.762,2.4,17.28,17.28,0,0,0-1.41,2.627,11.934,11.934,0,0,0-.833,2.82,10.108,10.108,0,0,0,0,2.948,7.907,7.907,0,0,1-.289-3.011,9.364,9.364,0,0,1,.8-2.948,13.411,13.411,0,0,1,1.538-2.627,11.255,11.255,0,0,1,1.955-2.211Z" transform="translate(-1180.385 -770.868)" fill="#daeef7"/>
    <path id="Path_61" d="M1318.435,1054.264c-4.838-8.234-2.6-18.231-.673-23.742a27.838,27.838,0,0,1-8.587-5.062c-7.754,17.494,5.383,32.458,5.383,32.458h0c.256.577.449,1.089.449,1.089,3.2,5.575,3.2,5.479,3.46,5.415s-.417-2.755,0-2.723,2.21,3.2,2.371,2.884-1.313-3.46-1.089-3.524,2.05,3.2,2.435,2.82-1.7-3.621-1.314-3.717,2.531,3.4,2.852,3.2a28.543,28.543,0,0,0-2.691-5.479.224.224,0,0,1,.225-.353c2.852,0,3.2,0,3.2-.288a42.86,42.86,0,0,0-6.023-2.98Z" transform="translate(-1189.406 -767.275)" fill="#ffc0bb"/>
    <path id="Path_62" d="M1326.211,1022c-5.959,21.4,1.218,27.715,1.25,27.907l-1.058,4.967s-14.674-9.612-5.383-34.893a1.25,1.25,0,0,1,1.73-.769l2.787,1.282a1.249,1.249,0,0,1,.673,1.506Z" transform="translate(-1164.693 -781.31)" fill="#e03268"/>
    <path id="Path_63" d="M1334.422,1059.956s-.192-.481-.353-1.025h0l-.288-2.051a182.233,182.233,0,0,0-3.524-31.24,23.38,23.38,0,0,1-10.158,5.031,91.129,91.129,0,0,1,8.747,28.548,42.635,42.635,0,0,0-2.083,5.19c0,.256.417.224,2.339-1.7a.225.225,0,0,1,.385,0,25.659,25.659,0,0,0,1.538,5.543c.417,0-.289-3.749,0-3.973s.929,3.524,1.378,3.46-.192-3.428,0-3.524,1.153,3.2,1.441,3.2-.353-3.4-.16-3.556,1.441,2.083,1.634,1.986S1335.8,1065.851,1334.422,1059.956Z" transform="translate(-1159.928 -766.879)" fill="#ffc0bb"/>
    <path id="Path_64" d="M1310.395,1024.681s-.865-16.02,16.885-16.981c0,0-.577,15.636-14.45,17.142l-1.057-2.051Z" transform="translate(-1181.334 -806.42)" fill="#f50"/>
    <path id="Path_65" d="M1316.277,1007.734s14.386-.8,15.123,16.821a3.781,3.781,0,0,0-1.826.32A20.633,20.633,0,0,1,1315.38,1011Z" transform="translate(-1170.331 -806.357)" fill="#f50"/>
    <path id="Path_66" d="M1314.323,1060.719c-2.884.288-4.261-.353-4.838-1.218l-1.955,1.282a.93.93,0,0,0,.481,1.7h12.816a.833.833,0,0,0,.833-.8v-3.46A11.41,11.41,0,0,1,1314.323,1060.719Z" transform="translate(-1188.532 -695.07)" fill="#07085b"/>
    <path id="Path_67" d="M1326.547,1060.719c2.884.288,4.261-.353,4.838-1.218l1.955,1.282a.929.929,0,0,1-.48,1.7h-12.816a.833.833,0,0,1-.833-.8v-3.46a11.406,11.406,0,0,0,7.337,2.5Z" transform="translate(-1161.89 -695.07)" fill="#07085b"/>
    <path id="Path_68" d="M1407.267,1023.41l14.707,1.185-4.742,11.887-7.433-.608-3.2,9.932-1.442-.673a96.773,96.773,0,0,1-1.762-9.612Z" transform="translate(-976.35 -771.794)" fill="#daeef7"/>
    <path id="Path_69" d="M1407.22,1057.55v5.19a.77.77,0,0,0,.77.769H1420.1a.865.865,0,0,0,.481-1.6l-6.793-4.358A6.409,6.409,0,0,1,1407.22,1057.55Z" transform="translate(-967.909 -696.547)" fill="#e03268"/>
    <path id="Path_70" d="M1404.495,993.681a.256.256,0,0,1-.32-.256,26.11,26.11,0,0,0,.961-6.152c-.417-.192-1.346,3.845-1.762,3.909s.577-3.877,0-4-1.282,3.46-1.474,3.46a24.384,24.384,0,0,1,0-3.749c0-.256-1.121,3.46-1.378,3.556s-.513-2.659-.769-2.659-.385,0-1.6,6.408a9.619,9.619,0,0,1-.481,2.884l.9,1.89h2.852a82.26,82.26,0,0,0,6.152-5.96C1407.507,992.592,1407.218,992.528,1404.495,993.681Z" transform="translate(-988.958 -852.318)" fill="#ffc0bb"/>
    <path id="Path_71" d="M1410.653,993.444a.224.224,0,0,0,.384,0,29.147,29.147,0,0,1,2.018-5.864c.481,0-.544,4.037-.192,4.262s1.25-3.685,1.73-3.589-.449,3.653-.256,3.781,1.441-3.2,1.762-3.2-.608,3.589-.417,3.813,1.667-2.147,1.891-2.051.384,0-1.442,6.408a8.674,8.674,0,0,0-.865,2.788l-1.7,1.25-2.563-1.218a80.2,80.2,0,0,1-2.756-8.106C1408.346,991.2,1408.634,991.265,1410.653,993.444Z" transform="translate(-965.639 -850.766)" fill="#ffc0bb"/>
    <path id="Path_72" d="M139.031,62.53l.032,10.926L128.49,71.822l1.762-12.272Z" transform="translate(283.202 131.253)" fill="#ffc0bb"/>
    <path id="Path_73" d="M1398.9,1010.069l.8-5.639,8.812,4.037v2.147A16.018,16.018,0,0,1,1398.9,1010.069Z" transform="translate(-986.247 -813.627)" fill="#fc8d84" opacity="0.6"/>
    <path id="Path_74" d="M1406.333,1057.37v5.7a.865.865,0,0,1-.865.833h-13.329a.961.961,0,0,1-.513-1.762l7.465-4.774A7.114,7.114,0,0,0,1406.333,1057.37Z" transform="translate(-1003.228 -696.943)" fill="#e03268"/>
    <path id="Path_75" d="M1394.324,1033.05c0-1.218-3.2,2.371-3.2,1.409,1.25-20.186,40.691-3.2,40.691-3.2l9.612,7.081,10.862,93.559a19.384,19.384,0,0,1-9.8.321l-24.062-80.1-2.948-1.121A167.793,167.793,0,0,1,1394.324,1033.05Z" transform="translate(-1003.394 -769.226)" fill="#07085b"/>
    <path id="Path_76" d="M1391.158,1027.92a5.145,5.145,0,0,0,0,.7A5.145,5.145,0,0,1,1391.158,1027.92Z" transform="translate(-1003.337 -761.853)" fill="#06bfad"/>
    <path id="Path_77" d="M1391.149,1028.15a6.21,6.21,0,0,0,0,.769,6.116,6.116,0,0,1,0-.769Z" transform="translate(-1003.359 -761.347)" fill="#06bfad"/>
    <path id="Path_78" d="M1391.138,1028.42a7.991,7.991,0,0,0,0,.865A7.991,7.991,0,0,1,1391.138,1028.42Z" transform="translate(-1003.381 -760.751)" fill="#06bfad"/>
    <path id="Path_79" d="M1391.16,1027.66v0Z" transform="translate(-1003.306 -762.426)" fill="#06bfad"/>
    <path id="Path_80" d="M1391.184,1026.23a269.336,269.336,0,0,0,24.383,20.955l2.947,1.121-2.948-1.121-9.164,81a19.224,19.224,0,0,1-10.253-.769S1390.67,1050.293,1391.184,1026.23Z" transform="translate(-1003.33 -765.578)" fill="#07085b"/>
    <path id="Path_81" d="M1413.963,1058.05a26.308,26.308,0,0,1-5.383.865,26.341,26.341,0,0,0,5.383-.865Z" transform="translate(-964.911 -695.444)" fill="#06bfad"/>
    <path id="Path_82" d="M1407.56,1058.25h0Z" transform="translate(-967.159 -695.004)" fill="#06bfad"/>
    <path id="Path_83" d="M1409.99,1058.32h0Z" transform="translate(-966.322 -694.85)" fill="#06bfad"/>
    <path id="Path_84" d="M1422.507,1036.763l1.538,13.361c-4.1,1.57-14.13,3.2-21.66-13.233a21.315,21.315,0,0,1-2.563-11.631,104.646,104.646,0,0,1,13.04,4.422Z" transform="translate(-984.317 -767.716)" fill="#050645"/>
    <path id="Path_85" d="M1405.642,1022.476c.449,0,7.273-15.476,7.273-15.476a16.725,16.725,0,0,0,13.778,1.25s32.041,58.41,10.509,67.542-41.653-1.986-41.653-1.986-4.55-11.855-4.55-12.3S1405.194,1022.476,1405.642,1022.476Z" transform="translate(-1003.659 -807.963)" fill="#daeef7"/>
    <path id="Path_86" d="M1423.881,992.947s1.378,27.715-1.218,32.81c-8.619,16.854-19.224,18.552-19.224,18.552s-3.685,58.955-.641,73.085c0,0,10.093,3.2,24.992-3.877,0,0-11.407-45.722-10.8-51.49,0,0,18.231-16.245,18.84-35.245a128.819,128.819,0,0,0-4.422-36.142Z" transform="translate(-980.309 -844.021)" fill="#55769f"/>
    <path id="Path_87" d="M1402.764,1118.509a271.282,271.282,0,0,1,6.152-42.743,221.124,221.124,0,0,1,8.651-29.445c-6.7-7.4-5.607-14.1-5-22.781.673-10.029,10.478-30.054,10.478-30.054l-6.6-4.325c-31.657,38.032-14.13,68.311-14.13,68.311s-11.855,41.909-13.425,54.662a94.335,94.335,0,0,0,13.875,6.376Z" transform="translate(-1008.31 -847.283)" fill="#55769f"/>
    <path id="Path_88" d="M1409.057,1017.506a7,7,0,0,1-1.282-1.186,12.823,12.823,0,0,1-2.531-5.511,16.023,16.023,0,0,0,2.724,5.351,6.408,6.408,0,0,0,1.474,1.345h0a3.2,3.2,0,0,1-2.4-.577,10.1,10.1,0,0,1-2.019-1.442,16,16,0,0,0,2.084,1.313,4.224,4.224,0,0,0,1.955.705Z" transform="translate(-972.758 -799.565)" fill="#fff"/>
    <path id="Path_89" d="M1393.336,1015.024a8.066,8.066,0,0,0,1.441-1.346,14.911,14.911,0,0,0,2.691-5.319,12.594,12.594,0,0,1-2.5,5.479,6.4,6.4,0,0,1-1.282,1.218,2.761,2.761,0,0,0,.9,0,6.691,6.691,0,0,0,1.121-.416,13.282,13.282,0,0,0,2.115-1.314,11.243,11.243,0,0,1-2.019,1.442,5.421,5.421,0,0,1-1.186.48,2.434,2.434,0,0,1-1.282,0h-.256Z" transform="translate(-999.075 -804.965)" fill="#fff"/>
    <path id="Path_90" d="M127.471,54.125l-.641,7.5,1.186.737,2.211-9.1Z" transform="translate(279.543 117.389)" fill="#07085b"/>
    <path id="Path_91" d="M1401.075,1002.3a2.852,2.852,0,0,1-1.859,3.556,3.2,3.2,0,0,1-1.185-6.152A2.852,2.852,0,0,1,1401.075,1002.3Z" transform="translate(-992.459 -824.057)" fill="#f99893"/>
    <path id="Path_92" d="M1397.145,1016.874a24.4,24.4,0,0,1,0-6.408v-1.25a13.361,13.361,0,1,1,26.465,2.948,2.884,2.884,0,0,1,2.564.321,3.558,3.558,0,0,1,.288,5.031,3.2,3.2,0,0,1-5.352.9,12.5,12.5,0,0,1-14.45,8.811,12.272,12.272,0,0,1-9.517-10.349Z" transform="translate(-990.579 -831.71)" fill="#ffc0bb"/>
    <path id="Path_93" d="M1401.612,1001.285a1.186,1.186,0,0,0,1.089,1.6,1.219,1.219,0,0,0,1.089-.7,1.186,1.186,0,0,0-1.122-1.6A1.153,1.153,0,0,0,1401.612,1001.285Z" transform="translate(-980.435 -822.113)" fill="#333"/>
    <path id="Path_94" d="M1398.52,1000.847a1.186,1.186,0,1,0,1.057-.737,1.185,1.185,0,0,0-1.057.737Z" transform="translate(-987.277 -823.149)" fill="#333"/>
    <path id="Path_95" d="M1406.017,1004.209a7.752,7.752,0,0,1-1.891.641,5.7,5.7,0,0,1-1.954,0,4.322,4.322,0,0,1-1.826-.641,6.957,6.957,0,0,1-1.505-1.25,5.353,5.353,0,0,0,1.41,1.409,4.355,4.355,0,0,0,1.89.7,4.912,4.912,0,0,0,2.051,0,5.489,5.489,0,0,0,1.826-.865Z" transform="translate(-986.379 -816.867)" fill="#f99893"/>
    <path id="Path_96" d="M1401.27,1000.575a11.188,11.188,0,0,1,1.73,0,4.571,4.571,0,0,1,1.634.192,4.293,4.293,0,0,1,1.474.641,16.3,16.3,0,0,1,1.442,1.025,3.942,3.942,0,0,0-1.026-1.57,3.685,3.685,0,0,0-1.7-.929,4.193,4.193,0,0,0-1.89,0,3.717,3.717,0,0,0-1.666.641Z" transform="translate(-981.023 -823.774)" fill="#07085b"/>
    <path id="Path_97" d="M1404.293,1001.126a3.684,3.684,0,0,0-1.313-1.313,3.967,3.967,0,0,0-1.826-.577,3.847,3.847,0,0,0-1.891.352,4.192,4.192,0,0,0-1.474,1.122,17,17,0,0,0,1.7-.513,5.512,5.512,0,0,1,3.2.224,8.715,8.715,0,0,1,1.6.7Z" transform="translate(-988.693 -825.095)" fill="#07085b"/>
    <path id="Path_98" d="M1402.787,1000.28a20.134,20.134,0,0,0-2.82,3.492,4.158,4.158,0,0,0-.577,1.346,1.1,1.1,0,0,0,.385.9,5.034,5.034,0,0,0,.9.737,6.9,6.9,0,0,0,.961.544,11.7,11.7,0,0,1-1.57-1.505,1.132,1.132,0,0,1-.256-.417.745.745,0,0,1,0-.416,6.78,6.78,0,0,1,.481-.961l1.217-1.858A17.569,17.569,0,0,0,1402.787,1000.28Z" transform="translate(-985.167 -822.774)" fill="#f99893"/>
    <path id="Path_99" d="M1399.946,999.585s-3.941-.769.929-3.2,16.725-3.749,22.941,1.57c0,0,2.083-2.691,3.941-1.506s-1.955,2.467-1.955,2.467,2.627.513,3.2,1.987-1.217.737-2.083.512c1.41.577,5.607,4.55,0,15.348a94.223,94.223,0,0,1-7.177-9.324s-12.528,4.1-10.253.7c0,0-14.579,3.653-11.054-2.948C1398.536,1005.256,1393.153,1004.423,1399.946,999.585Z" transform="translate(-991.522 -836.048)" fill="#07085b"/>
    <path id="Path_100" d="M1411.373,1012.493a2.6,2.6,0,0,0-2.371-.192c-1.442.545-2.371,3.781-2.371,3.781s-4.742,3.877-2.435-13.009,5.415,2.755,5.415,2.755Z" transform="translate(-975.97 -831.719)" fill="#07085b"/>
    <path id="Path_101" d="M1397.341,985.313l-2.051-.192a2.312,2.312,0,0,1,1.25-.256l51.265,5.063a4.581,4.581,0,0,1,4.421,4.774l-.256,2.723a4.614,4.614,0,0,1-5.287,3.813l-50.625-5Z" transform="translate(-994.203 -856.766)" fill="#e03268"/>
    <path id="Path_102" d="M1415.235,993.78l.256-2.756a4.613,4.613,0,0,0-4.421-4.774h1.089a4.646,4.646,0,0,1,4.454,4.774l-.288,2.723a4.583,4.583,0,0,1-5.255,3.813h-1.089a4.614,4.614,0,0,0,5.255-3.781Z" transform="translate(-961.825 -853.697)" fill="#feb546"/>
    <path id="Path_103" d="M1411.517,993.388l.256-2.723a4.647,4.647,0,0,0-4.422-4.774h1.089a4.583,4.583,0,0,1,4.422,4.774l-.256,2.724a4.646,4.646,0,0,1-5.287,3.845h-1.089a4.646,4.646,0,0,0,5.287-3.845Z" transform="translate(-970.091 -854.491)" fill="#feb546"/>
    <path id="Path_104" d="M1427.79,987.922a4.39,4.39,0,0,1,4.229,4.55l-.288,3.2a4.453,4.453,0,0,1-5.03,3.685l-32.041-3.2v-.7h8.171l2.21-5.543a43.244,43.244,0,0,0-3.2-3.556c-.353-.128-6.408-.929-6.408-.929h0v-.673Z" transform="translate(-995.592 -857.003)" fill="#ff5b7e"/>
    <path id="Path_105" d="M1397.215,990.106a6.567,6.567,0,0,0-1.474-5.126l31.111,3.044a4.038,4.038,0,0,1,3.876,4.2l-.224,2.371a4.07,4.07,0,0,1-4.646,3.2l-31.079-3.043S1396.8,994.3,1397.215,990.106Z" transform="translate(-995.327 -856.496)" fill="#daeef7"/>
    <path id="Path_106" d="M1430.09,992.221l-.224,2.371a2.85,2.85,0,0,1-.224.9,8.812,8.812,0,0,0-6.408-5.831,242.346,242.346,0,0,0-28.164-4.678l31.111,3.043a4.037,4.037,0,0,1,3.909,4.2Z" transform="translate(-994.688 -856.496)" fill="#daeef7"/>
    <path id="Path_107" d="M1378.062,1009.49l-2.115,4.71a.738.738,0,0,0,.385,1.025l11.022,4.966a.865.865,0,0,0,1.089-1.281l-4.261-6.665a6.792,6.792,0,0,1-6.119-2.755Z" transform="translate(-1037.019 -802.474)" fill="#55769f"/>
    <path id="Path_108" d="M1373.669,1009.49l-2.115,4.71a.77.77,0,0,0,.417,1.025l11.021,4.966a.865.865,0,0,0,1.089-1.281l-4.261-6.665a6.857,6.857,0,0,1-6.151-2.755Z" transform="translate(-1046.661 -802.474)" fill="#55769f"/>
    <path id="Path_109" d="M1367.253,971.515l-1.186,7.369-2.467-9.8s3.46-1.7,3.621-1.089A26.365,26.365,0,0,1,1367.253,971.515Z" transform="translate(-1064.051 -894.233)" fill="#07085b"/>
    <path id="Path_110" d="M89.2,29.02,88.14,41.74,99.354,41.2,98.041,29.949Z" transform="translate(194.267 63.962)" fill="#ffc0bb"/>
    <path id="Path_111" d="M1368.306,980.18l-.609-5.351-8.875-.929-.352,4.422a8.907,8.907,0,0,0,9.836,1.858Z" transform="translate(-1075.357 -880.917)" fill="#f99893"/>
    <path id="Path_112" d="M1363.737,972.377a2.307,2.307,0,1,0,3.2-1.538A2.564,2.564,0,0,0,1363.737,972.377Z" transform="translate(-1063.9 -887.949)" fill="#f99893"/>
    <path id="Path_113" d="M1383.046,982.4a6.569,6.569,0,0,1,.224-1.089,12.283,12.283,0,0,0,.192-4.614,12.015,12.015,0,0,0-23.837,1.058,2.5,2.5,0,0,0-2.307-.353,3.621,3.621,0,0,0,2.467,6.633,3.215,3.215,0,0,0,.545-.321,11.246,11.246,0,0,0,10.509,10.99,10.668,10.668,0,0,0,7.465-2.563A15.511,15.511,0,0,0,1383.046,982.4Z" transform="translate(-1081.574 -896.943)" fill="#ffc0bb"/>
    <path id="Path_114" d="M1362.682,970.35v2.019a4.192,4.192,0,0,0,.353,1.762,1.607,1.607,0,0,1,.481,1.057,1.442,1.442,0,0,1-.513,1.121,2.338,2.338,0,0,1-2.083.385,2.882,2.882,0,0,0,1.7-.769.926.926,0,0,0,.256-.7c0-.257,0-.289-.417-.705a2.5,2.5,0,0,1-.32-1.122,5.792,5.792,0,0,1,0-1.057,7.218,7.218,0,0,1,.545-1.987Z" transform="translate(-1069.957 -888.742)" fill="#f99893"/>
    <path id="Path_115" d="M1361.667,971.215a1.09,1.09,0,0,1-1.282,1.153,1.058,1.058,0,0,1-.8-.929,1.025,1.025,0,0,1,1.249-1.122,1.057,1.057,0,0,1,.833.9Z" transform="translate(-1072.915 -888.87)" fill="#333"/>
    <path id="Path_116" d="M1364.437,971.552a1.041,1.041,0,1,1-.833-.929,1.089,1.089,0,0,1,.833.929Z" transform="translate(-1066.81 -888.182)" fill="#333"/>
    <path id="Path_117" d="M1359.68,972.84a4.5,4.5,0,0,0,.866.673l.929.545a6.4,6.4,0,0,0,2.019.609,5.22,5.22,0,0,0,2.115,0,8.236,8.236,0,0,0,1.954-.865,6.4,6.4,0,0,1-1.89,1.09,5.6,5.6,0,0,1-2.21.224,5.937,5.937,0,0,1-2.083-.705A6.409,6.409,0,0,1,1359.68,972.84Z" transform="translate(-1072.69 -883.254)" fill="#f99893"/>
    <path id="Path_118" d="M1364.629,970.719a10.459,10.459,0,0,0-1.538-.353,5.489,5.489,0,0,0-1.441,0,4.387,4.387,0,0,0-1.41.385,14.671,14.671,0,0,0-1.41.673,3.726,3.726,0,0,1,1.089-1.25,3.527,3.527,0,0,1,1.634-.641,3.4,3.4,0,0,1,1.7.257A3.012,3.012,0,0,1,1364.629,970.719Z" transform="translate(-1074.564 -890.585)" fill="#07085b"/>
    <path id="Path_119" d="M1362.08,970.626a2.982,2.982,0,0,1,1.506-.7,3.382,3.382,0,0,1,4.037,2.371c-.193,0-.93-.769-1.25-.961a5.55,5.55,0,0,0-1.313-.641,5.187,5.187,0,0,0-1.41-.225,8.69,8.69,0,0,0-1.57.16Z" transform="translate(-1067.401 -889.948)" fill="#07085b"/>
    <path id="Path_120" d="M1360.6,995.275s-2.339,16.02,13.008,18.648a187.118,187.118,0,0,0,34.412,1.954l2.659,36.462,8.01.385s20.634-50.656-7.914-58.571h-25.633l-10.542-.769a76.9,76.9,0,0,0-10.829-2.115C1363.641,991.879,1360.854,995.531,1360.6,995.275Z" transform="translate(-1070.949 -842.633)" fill="#070852"/>
    <path id="Path_121" d="M1356.2,995.327s-2.339,16.021,13.009,18.648a185.78,185.78,0,0,0,34.412,1.923l2.659,36.462,8.01.417s20.634-50.656-7.914-58.6h-25.632l-10.574-.737a77.6,77.6,0,0,0-10.8-2.146C1359.241,991.931,1356.454,995.583,1356.2,995.327Z" transform="translate(-1080.647 -842.589)" fill="#10116b"/>
    <path id="Path_122" d="M1388.686,977.127s10.573,1.346,13.265,3.524,15.572,34.188,15.572,34.188l-10.733,12.592h-22.781s-17.109,9.228-27.843.481-5.19-39.058,1.025-45.594,17.27-6.408,17.27-6.408S1384.521,983.151,1388.686,977.127Z" transform="translate(-1093.815 -876.487)" fill="#ff5b7e"/>
    <path id="Path_123" d="M1356.465,981.26a42.051,42.051,0,0,1,.769,5.287,12.685,12.685,0,0,0,.192,2.692,12.29,12.29,0,0,1,0,2.659,33.131,33.131,0,0,1-.448,5.351,17.605,17.605,0,0,1-1.539,5.126,28.679,28.679,0,0,0,1.025-5.191c.192-1.762.256-3.524.289-5.287s0-3.524,0-5.319S1356.561,983.054,1356.465,981.26Z" transform="translate(-1082.036 -864.696)" fill="#fff"/>
    <path id="Path_124" d="M1365.62,980.89q.737,3.909,1.538,7.786c.513,2.563,1.057,5.158,1.7,7.69s1.282,5.126,2.115,7.594c.417,1.25.9,2.467,1.441,3.685a13.425,13.425,0,0,0,2.019,3.2,13.637,13.637,0,0,1-2.339-3.2,33.646,33.646,0,0,1-1.634-3.621c-.449-1.25-.865-2.5-1.25-3.781s-.7-2.531-1.025-3.813-.608-2.6-.865-3.877-.48-2.6-.7-3.909C1366.2,986.145,1365.844,983.549,1365.62,980.89Z" transform="translate(-1059.598 -865.511)" fill="#fff"/>
    <path id="Path_125" d="M1385.1,988.32c-1.954-3.2-17.942-8.17-17.942-8.17v5.126l16.276,5.671Z" transform="translate(-1056.204 -867.142)" fill="#ededed"/>
    <path id="Path_126" d="M115.052,43.635,96.5,35.08v3.332l18.071,6.536Z" transform="translate(212.693 77.319)" fill="#fff"/>
    <path id="Path_127" d="M115.459,42.841,95.85,35.44v5.735l19.385,2.98Z" transform="translate(211.261 78.113)" fill="#ededed"/>
    <path id="Path_128" d="M1372.76,989.768a82.6,82.6,0,0,1,5.319-10.638,52.2,52.2,0,0,1-2.339,13.1Z" transform="translate(-1043.861 -869.391)" fill="#fff"/>
    <path id="Path_129" d="M103.16,45.647l4.582-11.567v5.511l-3.14,7.562Z" transform="translate(227.373 75.115)" fill="#ededed"/>
    <path id="Path_130" d="M103.61,45.486l5-11.246v4.005Z" transform="translate(228.365 75.468)" fill="#fff"/>
    <path id="Path_131" d="M103.61,79.868l6.28-10.83V34.37L103.61,45.2Z" transform="translate(228.365 75.754)" fill="#26426e"/>
    <path id="Path_132" d="M94.56,70.788l22.268,5.223V41.343L94.56,36.12Z" transform="translate(208.418 79.611)" fill="#55769f"/>
    <path id="Path_133" d="M1371.63,983.054a9.615,9.615,0,0,1,6.7,0C1378.006,985.04,1372.111,985.425,1371.63,983.054Z" transform="translate(-1046.352 -862.068)" fill="#e0e0e0"/>
    <path id="Path_134" d="M1371.63,1017.308c0,.833,6.729.833,6.729,0V982.64a8.074,8.074,0,0,1-6.729,0Z" transform="translate(-1046.352 -861.654)" fill="#3a5782"/>
    <path id="Path_135" d="M1378.9,990.822c0-.512-4.1-1.121-5.575-1.186l-11.086-.417.192.641v2.884l-.417,1.891c2.243.16,7.658.352,8.779.577a26.644,26.644,0,0,1,4.134,1.442s1.089-.256-.289-.833a6.188,6.188,0,0,1-2.211-1.6.5.5,0,0,1,0-.544c3.781.993,4.166,1.153,4.166,1.153s4.422,0,0-1.025c-2.659-.609-3.588-.961-3.812-1.25a.345.345,0,0,1,.224-.577c2.275,0,6.408.673,5.255,0a25.651,25.651,0,0,0-4.9-1.089s-.192-.449,0-.449C1375.755,990.406,1378.959,991.335,1378.9,990.822Z" transform="translate(-1067.555 -847.151)" fill="#ffc0bb"/>
    <path id="Path_136" d="M1355,987.71c.929.256,1.826.512,2.755.7l2.788.577c1.891.32,3.749.641,5.639.9s3.749.481,5.639.641,3.813.352,5.671.449h.256v.224a12.548,12.548,0,0,1,.32,1.858,12.8,12.8,0,0,1,0,3.813,9.287,9.287,0,0,1-.577,1.826h0l-2.05,1.378-2.083,1.378,1.955-1.538,1.986-1.538h0a10.163,10.163,0,0,0,.513-3.589,17.52,17.52,0,0,0,0-1.826,16.184,16.184,0,0,0-.385-1.794l.321.224h-2.884l-2.852-.224c-1.89-.224-3.781-.449-5.671-.737s-3.749-.673-5.607-1.122c-.929-.224-1.858-.448-2.788-.737Z" transform="translate(-1083.006 -850.479)" fill="#fff"/>
    <path id="Path_137" d="M1384.265,972.455s3.524,0-.192-2.852-13.617-6.408-19.961-3.2c0,0-1.282-2.723-3.2-2.083s1.186,2.531,1.186,2.531-2.339,0-3.2,1.057.9.9,1.667.865c-1.314.224-6.408,3.46-3.877,13.777a53.256,53.256,0,0,0,6.12-7.754s11.919,6.632,10.733,1.345c0,0,12.335,7.722,10.574,1.346C1384.361,977.582,1389.135,977.934,1384.265,972.455Z" transform="translate(-1080.839 -902.254)" fill="#07085b"/>
    <path id="Path_138" d="M1356.28,978.592a2.274,2.274,0,0,1,2.05.48c1.058.865.93,3.813.93,3.813s5.062,3.2,4.518-10.542c-.545-14.707-4.2,1.186-4.2,1.186Z" transform="translate(-1080.185 -898.105)" fill="#07085b"/>
    <path id="Path_139" d="M1346.385,1056l2.115,4.71a.8.8,0,0,1-.384,1.025l-11.022,4.935a.865.865,0,0,1-1.089-1.282l4.261-6.632A6.793,6.793,0,0,0,1346.385,1056Z" transform="translate(-1125.24 -699.963)" fill="#07085b"/>
    <path id="Path_140" d="M1350.844,1055.79l2.115,4.71a.769.769,0,0,1-.384,1.025l-11.022,4.967a.865.865,0,0,1-1.089-1.282l4.261-6.664A6.794,6.794,0,0,0,1350.844,1055.79Z" transform="translate(-1115.409 -700.425)" fill="#07085b"/>
    <path id="Path_141" d="M1358.63,1008.267a14.546,14.546,0,0,0-16.02,11.406l5,7.434s10.445-4.005,10.477-4.39S1358.63,1008.267,1358.63,1008.267Z" transform="translate(-1110.314 -805.417)" fill="#f50"/>
    <path id="Path_142" d="M1366.72,1010.07s3.524,5.287,5.319,7.369c4.486,5.255,5.062,3.621,7.85,8.138a6.407,6.407,0,0,1-1.762,9.356c-1.73,1.41,1.186,6.6-2.051,9.612-4.261,3.845-8.17.224-11.086,2.371s-3.524,5.319-10.445,4.71-6.825-23.166-6.825-23.166,5.639-11.983,5.863-12.079Z" transform="translate(-1099.051 -801.196)" fill="#f50"/>
    <path id="Path_143" d="M1349.242,1011.75a19.627,19.627,0,0,1-1.763,6.408c-3.46,6.024-5.319,4.037-7.209,9a6.407,6.407,0,0,0,3.46,8.875c1.986,1.057,0,6.7,3.813,8.971,4.87,2.98,8.042-1.313,11.311.257s4.454,4.582,11.118,2.691,2.435-24.031,2.435-24.031-7.786-10.7-8.01-10.766S1349.242,1011.75,1349.242,1011.75Z" transform="translate(-1116.978 -797.493)" fill="#f50"/>
    <path id="Path_144" d="M1348.05,1021.435a117.134,117.134,0,0,1,16.821-1.955c5.287.192-3.2,13.97-3.2,13.97l-8.651.192s-5.287-5.927-4.934-6.633a25.024,25.024,0,0,0,0-5.191Z" transform="translate(-1098.324 -780.456)" fill="#ffc0bb"/>
    <path id="Path_145" d="M1356.754,1016.66l3.2,9.228s-2.627,5.447-10.734,3.2a8.553,8.553,0,0,0-.32-5.863C1347.462,1019.127,1356.754,1016.66,1356.754,1016.66Z" transform="translate(-1096.775 -786.671)" fill="#ffc0bb"/>
    <path id="Path_146" d="M1356.844,1016.66l1.441,4.294c-.865,3.2-3.621,5.287-8.811,5.959a12.281,12.281,0,0,0-.642-3.781C1347.552,1019.127,1356.844,1016.66,1356.844,1016.66Z" transform="translate(-1096.865 -786.671)" fill="#fc8d84" opacity="0.6"/>
    <path id="Path_147" d="M1348.791,1015.914a2.435,2.435,0,1,1-1.937-1.939A2.436,2.436,0,0,1,1348.791,1015.914Z" transform="translate(-1107.332 -792.686)" fill="#f99893"/>
    <path id="Path_148" d="M1346.628,1031.871a23.633,23.633,0,0,1-1.41-5.767,2.438,2.438,0,0,0-.192-1.154,12.424,12.424,0,0,1,0-4.87,12.656,12.656,0,0,1,25.088,2.019,2.563,2.563,0,0,1,2.435-.257,3.813,3.813,0,0,1-2.852,6.857,2.783,2.783,0,0,1-.577-.353,11.888,11.888,0,0,1-11.5,11.215,11.664,11.664,0,0,1-10.99-7.69Z" transform="translate(-1105.521 -801.85)" fill="#ffc0bb"/>
    <path id="Path_149" d="M1348.59,1013.71a6.678,6.678,0,0,1,.417,2.115,6.324,6.324,0,0,1,0,1.121,2.906,2.906,0,0,1-.385,1.121,1.759,1.759,0,0,0-.48.769.961.961,0,0,0,.256.737,3.207,3.207,0,0,0,1.763.9,2.533,2.533,0,0,1-2.147-.512,1.471,1.471,0,0,1-.513-1.186,1.859,1.859,0,0,1,.545-1.089,2.314,2.314,0,0,0,.32-.865,9.359,9.359,0,0,0,0-.993A11.823,11.823,0,0,0,1348.59,1013.71Z" transform="translate(-1099.538 -793.173)" fill="#f99893"/>
    <path id="Path_150" d="M1349.158,1014.648a1.1,1.1,0,0,0,2.179.32,1.121,1.121,0,0,0-1.282-1.25,1.058,1.058,0,0,0-.9.929Z" transform="translate(-1095.907 -793.182)" fill="#333"/>
    <path id="Path_151" d="M1346.2,1014.869a1.1,1.1,0,1,0,2.179.352,1.1,1.1,0,1,0-2.178-.352Z" transform="translate(-1102.434 -792.698)" fill="#333"/>
    <path id="Path_152" d="M1353.388,1016.8a3.748,3.748,0,0,0-3.2.417,2.755,2.755,0,0,0-2.883,0,3.2,3.2,0,0,0,3.2,2.211,2.723,2.723,0,0,0,2.884-2.627Z" transform="translate(-1099.978 -786.777)" fill="#f99893" opacity="0.3"/>
    <path id="Path_153" d="M1355.383,1016.41l-.93.641a6,6,0,0,1-.993.545,7.561,7.561,0,0,1-2.179.577,5.73,5.73,0,0,1-2.21-.256,8.659,8.659,0,0,1-2.052-.993,10.24,10.24,0,0,0,.93.7,8.153,8.153,0,0,0,1.058.513,6.373,6.373,0,0,0,1.121.288,4.913,4.913,0,0,0,1.186,0,6.749,6.749,0,0,0,4.07-2.018Z" transform="translate(-1100.595 -787.222)" fill="#f99893"/>
    <path id="Path_154" d="M1348.74,1014.091a10.578,10.578,0,0,1,1.634-.32,5.061,5.061,0,0,1,2.98.449c.353,0,1.25.7,1.474.8a3.619,3.619,0,0,0-1.122-1.378,3.77,3.77,0,0,0-3.492-.545A3.2,3.2,0,0,0,1348.74,1014.091Z" transform="translate(-1096.803 -794.996)" fill="#f50"/>
    <path id="Path_155" d="M1351.287,1013.978a3.844,3.844,0,0,0-1.57-.8,3.78,3.78,0,0,0-3.429.993,3.622,3.622,0,0,0-.928,1.506c.224,0,1.024-.8,1.377-.993a4.423,4.423,0,0,1,1.378-.609,7.736,7.736,0,0,1,1.538-.224A15.3,15.3,0,0,1,1351.287,1013.978Z" transform="translate(-1104.253 -794.531)" fill="#f50"/>
    <path id="Path_156" d="M1398.989,1040.281s3.4,16.02-12.015,19.769a187.978,187.978,0,0,1-34.86,4.2l-.385,37.231-8.106.929s-24.223-50.176,4.293-60.076l26.082-1.506,10.7-1.442a83.424,83.424,0,0,1,10.862-2.884C1395.721,1037.012,1398.764,1040.537,1398.989,1040.281Z" transform="translate(-1129.238 -742.942)" fill="#ffc0bb"/>
    <path id="Path_157" d="M1403.469,1040s3.4,16.021-12.016,19.8a190.193,190.193,0,0,1-34.893,4.165l-.352,37.264-8.106.929s-24.223-50.208,4.293-60.076l26.081-1.538,10.669-1.442a78.441,78.441,0,0,1,10.862-2.851C1400.169,1036.73,1403.212,1040.286,1403.469,1040Z" transform="translate(-1119.363 -743.492)" fill="#ffc0bb"/>
    <path id="Path_158" d="M1370.361,1040.079a29.8,29.8,0,0,0-29.093,22.172c-4.2,14.482-13.841,29.445-12.816,29.317,20.378,11.407,26.786,0,40.884,3.2s19.225,1.858,19.225,1.858a126.406,126.406,0,0,0-9.453-30.823c1.186.224,35.791.737,44.313-8.747,2.4-2.659,4.229-5.991,3.876-14.162C1426.5,1027.807,1374.11,1040.015,1370.361,1040.079Z" transform="translate(-1141.686 -745.464)" fill="#feb546"/>
    <path id="Path_159" d="M1343.616,1047.686l1.314-.288,1.313-.32.641-.224-.672-.192a5.939,5.939,0,0,1-1.186-.609,5.256,5.256,0,0,1-.994-.9,7.778,7.778,0,0,1-.769-1.025l.449.448.449.449a7.767,7.767,0,0,0,1.025.769,9.346,9.346,0,0,0,1.153.545,3.913,3.913,0,0,0,1.218.224h.7l-.641.32a9.15,9.15,0,0,1-1.314.449,6.977,6.977,0,0,0-1.314.288h-2.724Z" transform="translate(-1111.064 -726.125)" fill="#daeef7"/>
    <path id="Path_160" d="M1346.733,1028.39s-1.057,26.146-3.973,30.215l16.021-3.653V1026.5Z" transform="translate(-1109.983 -764.983)" fill="#ffc0bb"/>
    <path id="Path_161" d="M1346,1035.219a57.408,57.408,0,0,1,3.011,10.061,41.323,41.323,0,0,1-1.89,19.737c-2.5,6.921,16.982,4.293,17.43,4.293,20.6.481,20.41-.353,20.41-.353l3.2-2.627c-.48-8.459-1.634-15.8-1.441-23.326l.192-7.786-.961-7.882-29.157-2.307Z" transform="translate(-1102.843 -768.223)" fill="#feb546"/>
    <path id="Path_162" d="M1342.88,1035.135c1.794-2.755,16.373-7.465,16.373-7.465v4.678l-14.835,5.19Z" transform="translate(-1109.719 -762.404)" fill="#ededed"/>
    <path id="Path_163" d="M1342.88,1035.135c1.794-2.755,16.373-7.465,16.373-7.465v4.678l-14.835,5.19Z" transform="translate(-1109.719 -762.404)" fill="#ededed"/>
    <path id="Path_164" d="M73.1,90.458,90.018,82.64v3.044l-16.5,5.96Z" transform="translate(161.118 182.145)" fill="#fff"/>
    <path id="Path_165" d="M73.39,89.731,91.269,82.97v5.223L73.582,90.916Z" transform="translate(161.757 182.872)" fill="#ededed"/>
    <path id="Path_166" d="M1346.208,1036.4a74.1,74.1,0,0,0-4.837-9.612,47.347,47.347,0,0,0,2.146,11.951Z" transform="translate(-1113.047 -764.344)" fill="#fff"/>
    <path id="Path_167" d="M75.165,92.271,71,81.73v5.03l2.852,6.889Z" transform="translate(156.49 180.139)" fill="#ededed"/>
    <path id="Path_168" d="M75.02,92.133,70.47,81.88v3.653Z" transform="translate(155.321 180.47)" fill="#fff"/>
    <path id="Path_169" d="M74.755,123.316,70.59,113.7V82.08l4.165,9.612Z" transform="translate(155.586 180.911)" fill="#f5577a"/>
    <path id="Path_170" d="M94.146,115.214,73.8,119.988V88.364L94.146,83.59Z" transform="translate(162.661 184.239)" fill="#ff5b7e"/>
    <path id="Path_171" d="M1348.13,1030.371a8.939,8.939,0,0,0-6.12,0C1342.3,1032.07,1347.681,1032.422,1348.13,1030.371Z" transform="translate(-1111.637 -757.64)" fill="#e0e0e0"/>
    <path id="Path_172" d="M1348.152,1061.5c0,.769-6.152.769-6.152,0V1030a7.241,7.241,0,0,0,6.152,0Z" transform="translate(-1111.659 -757.269)" fill="#de4b6c"/>
    <path id="Path_173" d="M1398.583,1026.11l-13.841,6.408s-1.057,17.687-1.73,18.488c-1.218,1.41-13.489,5.479-19.961,6.664a6.086,6.086,0,0,1-3.2-.256l-9.612-3.46c-1.41-.481-5.383-1.41-5.639-.961s3.2.769,5.03,1.762c.289,0,0,.481,0,.448a28.426,28.426,0,0,0-5-.8c-1.217,0,2.884.833,4.966,1.826v.609a22.219,22.219,0,0,1-4-.256c-4.454-.7-.353.961-.353.961s.417,0,4.293.449c0,0,.192.449,0,.577a6.629,6.629,0,0,1-2.659.641c-1.506,0-.578.7-.578.7a29.439,29.439,0,0,1,4.358,0c1.121.224,6.408,2.019,8.362,2.723l.256-.32c2.948.673,29.958,2.659,33.258-5.383A95.67,95.67,0,0,0,1398.583,1026.11Z" transform="translate(-1108.326 -765.843)" fill="#ffc0bb"/>
    <path id="Path_174" d="M1360.592,1021.47s7.818,9.132,16.821-1.954a28.832,28.832,0,0,1,17.045,4.357c7.241,5.126,11.567,16.693,11.567,16.693s-10.381,6.921-18.744,6.921l-19.641-7.049-13.617,7.049a33.931,33.931,0,0,1-11.664-3.2S1343.258,1025.987,1360.592,1021.47Z" transform="translate(-1110.865 -780.491)" fill="#feb546"/>
    <path id="Path_175" d="M1356.291,1027.358c.353,1.121.641,2.275.961,3.4.545,2.243,1.057,4.39,1.442,6.7a12.8,12.8,0,0,0,2.21,0,41.649,41.649,0,0,0,9.612-3.2c5.03-2.275,4.357-2.051,6.889-3.2a66.936,66.936,0,0,1-6.7,3.781,37.871,37.871,0,0,1-9.612,3.2,10.423,10.423,0,0,1-2.916,0c-.256-1.667-.545-3.4-1.346-7.177l-.737-3.46-.769-3.46C1355.618,1024.955,1355.971,1026.076,1356.291,1027.358Z" transform="translate(-1082.278 -770.647)" fill="#07085b"/>
    <path id="Path_176" d="M1346.549,1031.329a19.237,19.237,0,0,0-.32,4.2,30.057,30.057,0,0,0,1.121,4.486H1347a38.469,38.469,0,0,1-1.314-4.582,16.584,16.584,0,0,1,.193-4.358,23.747,23.747,0,0,1,1.185-4.166,21.866,21.866,0,0,1,1.923-3.877c-.513,1.346-.994,2.692-1.41,4.037a38.8,38.8,0,0,0-1.025,4.262Z" transform="translate(-1103.68 -772.631)" fill="#07085b"/>
    <path id="Path_177" d="M1366.367,1026.756s-13.457-3.2-19.9-12.4c0,0,0-8.33,12.24-6.408S1373.512,1021.565,1366.367,1026.756Z" transform="translate(-1101.806 -806.508)" fill="#f50"/>
  </g>
</svg>
